<?xml version="1.0" encoding="UTF-8" standalone="no"?>
<!-- Created with Inkscape (http://www.inkscape.org/) -->

<svg
   width="120.68339mm"
   height="120.45169mm"
   viewBox="0 0 120.68339 120.45169"
   version="1.1"
   id="svg1"
   xml:space="preserve"
   inkscape:version="1.4.2 (f4327f4, 2025-05-13)"
   sodipodi:docname="drawing.svg"
   xmlns:inkscape="http://www.inkscape.org/namespaces/inkscape"
   xmlns:sodipodi="http://sodipodi.sourceforge.net/DTD/sodipodi-0.dtd"
   xmlns="http://www.w3.org/2000/svg"
   xmlns:svg="http://www.w3.org/2000/svg"><sodipodi:namedview
     id="namedview1"
     pagecolor="#ffffff"
     bordercolor="#000000"
     borderopacity="0.25"
     inkscape:showpageshadow="2"
     inkscape:pageopacity="0.0"
     inkscape:pagecheckerboard="0"
     inkscape:deskcolor="#d1d1d1"
     inkscape:document-units="mm"
     inkscape:zoom="0.71370863"
     inkscape:cx="-21.717546"
     inkscape:cy="105.0849"
     inkscape:window-width="1455"
     inkscape:window-height="1014"
     inkscape:window-x="526"
     inkscape:window-y="256"
     inkscape:window-maximized="0"
     inkscape:current-layer="layer1" /><defs
     id="defs1" /><g
     inkscape:label="Layer 1"
     inkscape:groupmode="layer"
     id="layer1"
     transform="translate(-44.71394,-88.343063)"><ellipse
       style="fill:#01af9c;fill-opacity:1;stroke:none;stroke-width:0.1;stroke-dasharray:none;stroke-opacity:1"
       id="path1"
       cx="105.05563"
       cy="148.56891"
       rx="60.341694"
       ry="60.225845" /><path
       style="fill:#ffb327;fill-opacity:1;stroke:none;stroke-width:0.1;stroke-dasharray:none;stroke-opacity:1"
       d="m 90.776851,102.51357 c 0,0 5.252135,3.35695 6.431738,8.70609 0.871802,3.95336 -0.334264,4.18824 0.746688,9.65196 1.844494,9.32308 4.271043,10.76672 5.219783,26.92389 0.71062,-0.99662 0.8326,-16.52575 0.95147,-27.01341 0.0531,-4.68583 0.24985,-8.08721 0.24985,-9.29243 0,-3.38538 -3.56983,-10.52579 -7.268425,-10.52581 -2.726817,-1e-5 -6.331104,1.54971 -6.331104,1.54971 z"
       id="path2"
       sodipodi:nodetypes="csscsssc" /><path
       style="fill:#ffffff;fill-opacity:0.968627;stroke:none;stroke-width:0.1;stroke-dasharray:none;stroke-opacity:1"
       d="m 79.344847,111.05266 c -0.927601,-1.29931 -1.20904,-1.58282 -0.451812,-2.61818 1.355137,-1.85289 6.257127,-4.34737 7.599681,-4.70346 1.623131,-0.43051 2.158131,-0.18967 2.942561,1.228 2.753805,4.97685 3.707163,12.06051 3.707163,15.44102 0,4.05866 5.410137,15.0388 5.410137,15.0388 -7.507333,-5.59345 -15.662848,-19.42079 -19.20773,-24.38618 z"
       id="path3"
       sodipodi:nodetypes="ssssscs" /><path
       style="fill:#ff6e40;fill-opacity:1;stroke:none;stroke-width:0.1;stroke-dasharray:none;stroke-opacity:1"
       d="m 76.800203,110.5976 c 0,0 -4.673903,5.63807 -4.673903,8.93073 0,4.49703 4.940497,8.99054 12.756461,10.95814 3.140795,0.79067 11.665634,4.94078 11.665634,4.94078 0,0 -4.889266,-2.98725 -6.525366,-4.46836 -1.277293,-1.1563 -5.50336,-6.03657 -6.63969,-7.37585 -2.76845,-3.2629 -6.395843,-12.0951 -6.583136,-12.98544 z"
       id="path4"
       sodipodi:nodetypes="csscssc" /><path
       style="fill:#3847a9;fill-opacity:1;stroke:none;stroke-width:0.1;stroke-dasharray:none;stroke-opacity:1"
       d="m 70.907766,123.46602 c 2.696801,6.67456 9.409207,8.93491 15.341769,10.20171 5.358952,1.14432 10.227727,2.73702 10.227727,6.08513 0,2.19626 -4.289823,4.63602 -9.032968,4.63602 -11.882498,0 -16.25479,-14.47932 -16.536528,-20.92286 z"
       id="path5"
       sodipodi:nodetypes="csssc" /><path
       style="fill:#fbbcc9;fill-opacity:1;stroke:none;stroke-width:0.1;stroke-dasharray:none;stroke-opacity:1"
       d="m 99.305598,142.44769 c -5.015044,3.94197 -10.750643,7.18417 -13.478931,10.12007 -3.64802,3.92561 -3.392575,7.23487 -5.039852,7.23487 -2.267992,0 -5.254072,-2.33178 -7.319544,-6.3249 -3.103089,-5.9991 -4.488341,-16.17339 -3.045047,-22.61035 5.86038,19.72086 18.828683,18.37068 28.883374,11.58031 z"
       id="path6"
       sodipodi:nodetypes="cssscc" /><path
       style="fill:#303030;fill-opacity:1;stroke:none;stroke-width:0.1;stroke-dasharray:none;stroke-opacity:1"
       d="m 105.07569,153.27533 c -1.54715,6.61826 -1.83103,3.66505 -5.575777,5.52519 -4.03329,2.00347 -7.358611,9.78977 -15.109399,9.78977 -6.730665,0 -14.818217,-3.58022 -19.4,-15.38161 1.56058,2.32381 4.153003,5.32999 5.957127,6.88688 2.462691,2.12521 5.418836,3.91928 10.112329,3.23795 5.887128,-0.85461 8.094737,-4.30219 10.639735,-7.27727 2.221038,-2.59638 4.82191,-5.16426 8.026628,-5.16426 2.829557,0 5.349357,2.38335 5.349357,2.38335 z"
       id="path7"
       sodipodi:nodetypes="csscssssc" /><path
       style="fill:#f7fcfc;fill-opacity:1;stroke:none;stroke-width:0.1;stroke-dasharray:none;stroke-opacity:1"
       d="m 79.47534,170.03751 c 5.016384,7.74541 11.552298,15.29289 16.314754,19.43495 1.881498,1.6364 2.519967,1.51208 1.912569,-0.75476 -2.26749,-8.46239 -2.024798,-16.49686 1.03445,-25.79473 -7.409549,5.84188 -9.957191,14.20183 -19.261773,7.11454 z"
       id="path8"
       sodipodi:nodetypes="csscc" /><path
       style="fill:#ffb327;fill-opacity:1;stroke:none;stroke-width:0.1;stroke-dasharray:none;stroke-opacity:1"
       d="m 119.20979,102.51357 c 0,0 -5.25213,3.35695 -6.43174,8.70609 -0.8718,3.95336 0.33427,4.18824 -0.74669,9.65196 -1.84449,9.32308 -4.27104,10.76672 -5.21978,26.92389 -0.71062,-0.99662 -0.8326,-16.52575 -0.95147,-27.01341 -0.0531,-4.68583 -0.24985,-8.08721 -0.24985,-9.29243 0,-3.38538 3.56983,-10.52579 7.26843,-10.52581 2.72681,-1e-5 6.3311,1.54971 6.3311,1.54971 z"
       id="path15"
       sodipodi:nodetypes="csscsssc" /><path
       style="fill:#ffffff;fill-opacity:0.968627;stroke:none;stroke-width:0.1;stroke-dasharray:none;stroke-opacity:1"
       d="m 130.64179,111.05266 c 0.92761,-1.29931 1.20904,-1.58282 0.45182,-2.61818 -1.35514,-1.85289 -6.25713,-4.34737 -7.59968,-4.70346 -1.62314,-0.43051 -2.15814,-0.18967 -2.94257,1.228 -2.7538,4.97685 -3.70716,12.06051 -3.70716,15.44102 0,4.05866 -5.41014,15.0388 -5.41014,15.0388 7.50734,-5.59345 15.66285,-19.42079 19.20773,-24.38618 z"
       id="path16"
       sodipodi:nodetypes="ssssscs" /><path
       style="fill:#ff6e40;fill-opacity:1;stroke:none;stroke-width:0.1;stroke-dasharray:none;stroke-opacity:1"
       d="m 133.18644,110.5976 c 0,0 4.6739,5.63807 4.6739,8.93073 0,4.49703 -4.9405,8.99054 -12.75646,10.95814 -3.14079,0.79067 -11.66563,4.94078 -11.66563,4.94078 0,0 4.88926,-2.98725 6.52536,-4.46836 1.2773,-1.1563 5.50336,-6.03657 6.63969,-7.37585 2.76845,-3.2629 6.39585,-12.0951 6.58314,-12.98544 z"
       id="path17"
       sodipodi:nodetypes="csscssc" /><path
       style="fill:#3847a9;fill-opacity:1;stroke:none;stroke-width:0.1;stroke-dasharray:none;stroke-opacity:1"
       d="m 139.07888,123.46602 c -2.69681,6.67456 -9.40921,8.93491 -15.34177,10.20171 -5.35896,1.14432 -10.22773,2.73702 -10.22773,6.08513 0,2.19626 4.28982,4.63602 9.03297,4.63602 11.8825,0 16.25479,-14.47932 16.53653,-20.92286 z"
       id="path18"
       sodipodi:nodetypes="csssc" /><path
       style="fill:#fbbcc9;fill-opacity:1;stroke:none;stroke-width:0.1;stroke-dasharray:none;stroke-opacity:1"
       d="m 110.68104,142.44769 c 5.01505,3.94197 10.75065,7.18417 13.47893,10.12007 3.64802,3.92561 3.39258,7.23487 5.03986,7.23487 2.26799,0 5.25407,-2.33178 7.31954,-6.3249 3.10309,-5.9991 4.48834,-16.17339 3.04505,-22.61035 -5.86038,19.72086 -18.82869,18.37068 -28.88338,11.58031 z"
       id="path19"
       sodipodi:nodetypes="cssscc" /><path
       style="fill:#303030;fill-opacity:1;stroke:none;stroke-width:0.1;stroke-dasharray:none;stroke-opacity:1"
       d="m 104.91095,153.27533 c 1.54715,6.61826 1.83103,3.66505 5.57578,5.52519 4.03329,2.00347 7.35861,9.78977 15.1094,9.78977 6.73066,0 14.81821,-3.58022 19.4,-15.38161 -1.56058,2.32381 -4.15301,5.32999 -5.95713,6.88688 -2.46269,2.12521 -5.41884,3.91928 -10.11233,3.23795 -5.88713,-0.85461 -8.09474,-4.30219 -10.63973,-7.27727 -2.22104,-2.59638 -4.82191,-5.16426 -8.02663,-5.16426 -2.82956,0 -5.34936,2.38335 -5.34936,2.38335 z"
       id="path20"
       sodipodi:nodetypes="csscssssc" /><path
       style="fill:#f7fcfc;fill-opacity:1;stroke:none;stroke-width:0.1;stroke-dasharray:none;stroke-opacity:1"
       d="m 130.5113,170.03751 c -5.01638,7.74541 -11.5523,15.29289 -16.31475,19.43495 -1.8815,1.6364 -2.51997,1.51208 -1.91257,-0.75476 2.26749,-8.46239 2.0248,-16.49686 -1.03445,-25.79473 7.40955,5.84188 9.95719,14.20183 19.26177,7.11454 z"
       id="path21"
       sodipodi:nodetypes="csscc" /><path
       style="fill:#303030;fill-opacity:1;stroke:none;stroke-width:0.1;stroke-dasharray:none;stroke-opacity:1"
       d="m 104.91095,203.09511 c 1.78549,-6.1225 6.19433,-19.53885 4.86738,-28.46462 -0.62603,-4.21105 -0.83011,-7.93951 0.30285,-11.9556 -3.15134,4.56796 -6.82247,4.40456 -9.80246,0 0.0844,3.92341 0.45076,8.02418 -0.14747,11.93243 -1.285936,8.40107 3.2645,22.53831 4.7797,28.48779 z"
       id="path22"
       sodipodi:nodetypes="csccsc" /></g></svg>
